<svg width="18" height="18" viewBox="0 0 18 18" fill="none" xmlns="http://www.w3.org/2000/svg">
<path d="M9.00001 5.62499C8.3325 5.62499 7.67998 5.82293 7.12496 6.19378C6.56995 6.56463 6.13736 7.09173 5.88192 7.70843C5.62647 8.32513 5.55964 9.00373 5.68986 9.65842C5.82009 10.3131 6.14152 10.9145 6.61353 11.3865C7.08553 11.8585 7.6869 12.1799 8.34158 12.3101C8.99627 12.4404 9.67487 12.3735 10.2916 12.1181C10.9083 11.8626 11.4354 11.4301 11.8062 10.875C12.1771 10.32 12.375 9.6675 12.375 8.99999C12.3741 8.10517 12.0182 7.24726 11.3855 6.61453C10.7527 5.9818 9.89483 5.62592 9.00001 5.62499ZM9.00001 11.25C8.555 11.25 8.11999 11.118 7.74998 10.8708C7.37997 10.6236 7.09158 10.2722 6.92128 9.86102C6.75099 9.44989 6.70643 8.99749 6.79324 8.56103C6.88006 8.12458 7.09435 7.72366 7.40902 7.409C7.72369 7.09433 8.1246 6.88004 8.56106 6.79322C8.99752 6.7064 9.44991 6.75096 9.86105 6.92126C10.2722 7.09155 10.6236 7.37994 10.8708 7.74995C11.1181 8.11996 11.25 8.55498 11.25 8.99999C11.25 9.59672 11.013 10.169 10.591 10.591C10.169 11.0129 9.59675 11.25 9.00001 11.25ZM16.7302 7.53819C16.7145 7.45898 16.682 7.38407 16.6348 7.31855C16.5876 7.25304 16.5268 7.19845 16.4567 7.1585L14.3592 5.96319L14.3508 3.59928C14.3505 3.51787 14.3326 3.43748 14.2983 3.36368C14.2639 3.28987 14.2139 3.2244 14.1518 3.17178C13.391 2.52821 12.5148 2.03502 11.5699 1.71842C11.4955 1.69324 11.4167 1.68392 11.3384 1.69106C11.2602 1.69821 11.1843 1.72166 11.1157 1.75991L9.00001 2.94256L6.8822 1.7578C6.81354 1.71933 6.73758 1.69571 6.65921 1.68844C6.58085 1.68117 6.50184 1.69043 6.42728 1.71561C5.48308 2.03452 4.60794 2.52959 3.84821 3.1746C3.78618 3.22713 3.73626 3.29249 3.70191 3.36617C3.66756 3.43985 3.64959 3.5201 3.64923 3.60139L3.63868 5.96741L1.54126 7.16272C1.47109 7.20267 1.41034 7.25726 1.36315 7.32277C1.31595 7.38829 1.28341 7.4632 1.26775 7.54241C1.07579 8.50701 1.07579 9.49999 1.26775 10.4646C1.28341 10.5438 1.31595 10.6187 1.36315 10.6842C1.41034 10.7497 1.47109 10.8043 1.54126 10.8443L3.63868 12.0396L3.64712 14.4035C3.64738 14.4849 3.6653 14.5653 3.69965 14.6391C3.73401 14.7129 3.78398 14.7784 3.84611 14.831C4.60694 15.4746 5.48309 15.9678 6.42798 16.2844C6.50239 16.3095 6.58125 16.3189 6.65948 16.3117C6.73771 16.3046 6.81358 16.2811 6.8822 16.2429L9.00001 15.0574L11.1178 16.2422C11.2016 16.2889 11.2961 16.3131 11.392 16.3125C11.4535 16.3125 11.5145 16.3025 11.5727 16.283C12.5168 15.9645 13.392 15.4699 14.1518 14.8254C14.2138 14.7728 14.2638 14.7075 14.2981 14.6338C14.3325 14.5601 14.3504 14.4799 14.3508 14.3986L14.3613 12.0326L16.4588 10.8373C16.5289 10.7973 16.5897 10.7427 16.6369 10.6772C16.6841 10.6117 16.7166 10.5368 16.7323 10.4576C16.9232 9.49373 16.9224 8.50175 16.7302 7.53819ZM15.6755 9.9928L13.6667 11.1354C13.5786 11.1854 13.5058 11.2583 13.4557 11.3463C13.4149 11.4166 13.372 11.4912 13.3284 11.5615C13.2726 11.6501 13.2429 11.7527 13.2427 11.8575L13.2321 14.1251C12.6922 14.5491 12.0906 14.8882 11.4483 15.1305L9.42189 14.0013C9.33776 13.9548 9.24311 13.9306 9.14696 13.931H9.13361C9.04853 13.931 8.96275 13.931 8.87767 13.931C8.77704 13.9285 8.67756 13.9528 8.58939 14.0013L6.56157 15.1333C5.91787 14.8928 5.31467 14.5554 4.77282 14.1328L4.76509 11.8687C4.76474 11.7638 4.73503 11.661 4.67931 11.572C4.63572 11.5017 4.59282 11.4314 4.55275 11.3569C4.50305 11.2675 4.43018 11.1932 4.34181 11.1417L2.33087 9.99631C2.22681 9.33806 2.22681 8.66754 2.33087 8.00928L4.33618 6.8646C4.4242 6.81455 4.49707 6.74167 4.54712 6.65366C4.5879 6.58335 4.63079 6.50881 4.67439 6.4385C4.73019 6.34983 4.75992 6.24725 4.76017 6.14249L4.77071 3.87491C5.31066 3.45089 5.91221 3.11182 6.55454 2.86944L8.57814 3.99866C8.6662 4.04748 8.76576 4.07176 8.86642 4.06897C8.9515 4.06897 9.03728 4.06897 9.12236 4.06897C9.22298 4.07148 9.32247 4.04722 9.41064 3.99866L11.4384 2.86663C12.0822 3.10715 12.6854 3.44455 13.2272 3.86717L13.2349 6.13124C13.2353 6.23621 13.265 6.33899 13.3207 6.42795C13.3643 6.49827 13.4072 6.56858 13.4473 6.64311C13.497 6.73249 13.5698 6.80681 13.6582 6.85827L15.6692 8.00366C15.7746 8.66242 15.7758 9.33367 15.6727 9.9928H15.6755Z" fill="#01040E"/>
</svg>
