<svg width="20" height="20" viewBox="0 0 20 20" fill="none" xmlns="http://www.w3.org/2000/svg">
<path d="M16.7859 14.0719C16.7437 14.1425 16.6879 14.204 16.6218 14.253C16.5557 14.302 16.4805 14.3375 16.4007 14.3574C16.3208 14.3773 16.2379 14.3812 16.1565 14.3689C16.0751 14.3567 15.997 14.3285 15.9265 14.2859L10.625 11.1039V16.875C10.625 17.0408 10.5591 17.1997 10.4419 17.3169C10.3247 17.4342 10.1657 17.5 9.99997 17.5C9.83421 17.5 9.67524 17.4342 9.55803 17.3169C9.44082 17.1997 9.37497 17.0408 9.37497 16.875V11.1039L4.07185 14.2859C4.00144 14.3292 3.92316 14.3581 3.84152 14.3709C3.75988 14.3837 3.67652 14.3801 3.59625 14.3605C3.51598 14.3409 3.4404 14.3055 3.37388 14.2565C3.30737 14.2075 3.25123 14.1458 3.20872 14.0749C3.16622 14.004 3.13818 13.9255 3.12625 13.8437C3.11431 13.7619 3.1187 13.6786 3.13918 13.5985C3.15965 13.5185 3.1958 13.4433 3.24553 13.3773C3.29525 13.3113 3.35757 13.2558 3.42888 13.2141L8.78513 10L3.42888 6.78594C3.35757 6.74418 3.29525 6.6887 3.24553 6.62271C3.1958 6.55671 3.15965 6.48151 3.13918 6.40145C3.1187 6.3214 3.11431 6.23808 3.12625 6.15631C3.13818 6.07454 3.16622 5.99595 3.20872 5.92509C3.25123 5.85423 3.30737 5.7925 3.37388 5.74348C3.4404 5.69445 3.51598 5.6591 3.59625 5.63948C3.67652 5.61985 3.75988 5.61634 3.84152 5.62914C3.92316 5.64194 4.00144 5.67081 4.07185 5.71406L9.37497 8.89609V3.125C9.37497 2.95924 9.44082 2.80027 9.55803 2.68306C9.67524 2.56585 9.83421 2.5 9.99997 2.5C10.1657 2.5 10.3247 2.56585 10.4419 2.68306C10.5591 2.80027 10.625 2.95924 10.625 3.125V8.89609L15.9281 5.71406C15.9985 5.67081 16.0768 5.64194 16.1584 5.62914C16.2401 5.61634 16.3234 5.61985 16.4037 5.63948C16.484 5.6591 16.5595 5.69445 16.6261 5.74348C16.6926 5.7925 16.7487 5.85423 16.7912 5.92509C16.8337 5.99595 16.8618 6.07454 16.8737 6.15631C16.8856 6.23808 16.8812 6.3214 16.8608 6.40145C16.8403 6.48151 16.8041 6.55671 16.7544 6.62271C16.7047 6.6887 16.6424 6.74418 16.5711 6.78594L11.2148 10L16.5711 13.2141C16.6415 13.2563 16.703 13.3119 16.7519 13.3779C16.8009 13.4438 16.8363 13.5188 16.8563 13.5984C16.8762 13.6781 16.8803 13.7609 16.8682 13.8422C16.8561 13.9234 16.8282 14.0015 16.7859 14.0719Z" fill="white"/>
</svg>
